<svg width="1254" height="1254" viewBox="0 0 1254 1254" fill="none" xmlns="http://www.w3.org/2000/svg">
<path d="M248.337 764.389L766.287 764.413L927.586 764.242C952.642 764.217 983.539 763.397 1008.3 764.548C1008.16 766.36 1007.95 768.167 1007.67 769.967C1005.89 781.607 1002.83 793.626 1000.35 805.076C987.917 862.707 963.082 922.033 912.536 956.181C907.937 959.285 903.217 962.169 898.704 965.457C901.508 972.983 906.278 980.508 909.517 987.862C918.892 1009.15 934.701 1024.45 919.124 1047.29C917.483 1049.26 915.732 1051 913.736 1052.59C903.345 1060.9 888.227 1061.9 875.479 1060.41C869.019 1059.65 862.908 1057.82 857.588 1053.96C848.158 1047.12 817.457 1005.66 808.432 994.168C791.275 995.43 775.257 997.034 757.782 997.824C699.001 999.942 640.183 1000.46 581.378 999.349C535.645 998.761 493.132 998.718 447.247 994.364C417.828 1021.58 403.601 1076.02 350.967 1058.3C342.657 1055.5 335.439 1050.39 331.553 1042.22C328.758 1036.29 327.858 1029.65 328.975 1023.2C331.171 1010.95 349.539 981.512 354.808 967.068L355.132 966.168C281.688 921.335 260.002 856.651 244.69 775.557C244.122 772.551 242.825 768.644 243.646 765.797C245.418 764.107 245.195 764.658 248.337 764.389Z" fill="black"/>
<path d="M769.409 196.022C776.751 188.546 783.34 182.311 791.973 176.295C840.676 142.342 904.104 150.041 946.023 191.165C963.326 208.321 975.383 230.053 980.777 253.816C986.502 279.951 985.314 302.971 985.302 329.423L985.253 399.193C985.216 488.434 984.371 579.426 985.388 668.514C1004.54 670.223 1026.36 664.595 1042 676.701C1049.67 682.64 1054.6 691.433 1055.66 701.07C1056.72 710.696 1053.87 720.34 1047.76 727.853C1042.63 734.129 1035.09 738.868 1026.94 739.67C1020.68 739.125 1015.59 739.462 1009.57 739.193C990.396 738.354 971.195 738.109 952.005 738.47C902.916 739.756 853.95 737.692 804.905 739.517L804.158 740.154C802.786 740.282 801.409 740.393 800.031 740.472C791.581 740.974 779.751 740.197 770.953 740.172L707.212 740.282L489.743 740.111L314.051 740.203L261.992 740.356C244.784 740.509 223.064 743.932 209.506 731.661C202.36 725.183 198.156 716.084 197.862 706.446C197.549 696.546 201.22 686.938 208.053 679.768C221.006 666.2 239.598 668.79 257.028 668.575C257.049 655.393 258.289 645.394 264.855 633.539C272.936 619.058 286.467 608.402 302.44 603.945C324.562 597.872 341.009 603.543 359.964 614.197C361.871 594.525 364.461 582.481 376.142 565.757C389.124 547.169 411.412 534.472 433.665 530.908C457.633 526.918 482.198 532.736 501.83 547.052C522.021 561.701 532.048 580.814 535.79 605.084C555.721 604.075 560.996 605.516 578.884 613.199C580.549 596.578 586.793 580.748 596.92 567.466C633.202 520.851 709.496 524.076 741.862 573.38C750.214 586.098 753.741 598.69 755.541 613.633C764.113 610.541 772.581 607.326 781.747 606.611C812.595 604.205 841.98 624.141 848.336 654.964C849.291 659.605 849.695 663.824 850.056 668.545C859.516 669.267 873.25 668.931 883.219 668.973C903.786 669.004 924.353 668.918 944.92 668.722C945.496 662.82 945.172 655.117 945.135 649.067L945.104 619.665L945.098 367.328C945.08 339.792 945.802 311.34 944.216 283.991C942.637 256.245 932.68 232.743 911.305 214.553C880.353 188.215 828.717 190.086 802.125 221.764C808.352 231.271 811.695 233.671 817.396 245.507C826.593 264.605 828.687 283.83 823.862 304.542C822.343 311.075 819 318.567 816.735 325.077C819.337 332.206 820.702 339.794 816.177 346.363C803.148 365.272 782.923 348.516 770.261 340.74L728.685 315.09L668.832 279.057C658.448 272.826 648.277 266.821 637.801 260.268C627.71 253.953 624.618 241.723 631.555 231.61C635.48 225.893 642.271 224.258 648.822 223.185C669.696 194.112 699.423 180.433 735.071 185.466C747.844 187.269 757.684 191.157 769.409 196.022Z" fill="black"/>
<path d="M329.758 446.058C353.047 442.743 374.657 458.818 378.177 482.078C381.697 505.338 365.813 527.088 342.585 530.814C319.066 534.586 296.982 518.458 293.417 494.906C289.853 471.355 306.175 449.414 329.758 446.058Z" fill="black"/>
<path d="M833.91 513.368C853.975 512.013 871.364 527.128 872.822 547.188C874.273 567.249 859.241 584.712 839.188 586.261C818.994 587.822 801.384 572.665 799.927 552.466C798.463 532.267 813.704 514.731 833.91 513.368Z" fill="black"/>
<path d="M552.973 476.833C569.796 473.5 586.108 484.533 589.277 501.388C592.447 518.244 581.256 534.448 564.371 537.453C547.715 540.418 531.781 529.413 528.655 512.787C525.529 496.161 536.378 480.121 552.973 476.833Z" fill="black"/>
<path d="M588.05 371.165C609.082 369.305 608.795 388.916 601.397 402.577C595.684 413.127 592.075 420.065 578.926 420.175C555.934 416.165 557.021 393.494 572.221 381.15C577.702 376.7 581.279 373.633 588.05 371.165Z" fill="black"/>
<path d="M657.535 401.823C678.292 400.447 678.709 414.811 674.325 430.951C671.092 442.865 665.973 450.602 653.059 452.018C638.817 450.673 629.884 438.378 635.719 424.713C639.429 416.024 648.755 405.52 657.535 401.823Z" fill="black"/>
<path d="M752.253 366.896C763.531 367.422 769.648 373.663 769.146 385.065C768.393 402.103 765.123 417.839 744.923 417.743C713.059 410.35 734.882 370.547 752.253 366.896Z" fill="black"/>
<path d="M639.509 305.697C665.887 305.482 654.051 336.828 643.25 348.233C638.444 353.311 633.429 353.284 626.896 353.374C619.854 352.02 613.425 347.417 611.189 340.266C606.494 325.253 625.989 308.131 639.509 305.697Z" fill="black"/>
<path d="M694.5 335.022C703.875 334.411 711.939 337.922 712.618 348.703C713.175 357.489 709.146 371.063 703.593 377.933C699.588 382.883 695.541 384.001 689.504 384.303C686.007 384.049 682.958 383.368 679.836 381.706C656.978 369.552 678.764 341.27 694.5 335.022Z" fill="black"/>
<path d="M722.77 442.182C732.194 441.438 740.386 445.783 740.919 455.741C741.807 472.437 739.645 490.766 719.801 492.657C687.661 490.473 702.944 448.934 722.77 442.182Z" fill="black"/>
<path d="M804.158 740.154L804.905 739.517C853.95 737.692 902.916 739.756 952.005 738.47C971.195 738.109 990.396 738.354 1009.57 739.193C1015.59 739.462 1020.68 739.125 1026.94 739.67C1016.51 741.574 999.857 741.072 988.89 740.999C934.083 740.644 879.33 740.423 824.523 740.668C818.994 740.699 809.583 740.662 804.158 740.154Z" fill="black" fill-opacity="0.952941"/>
</svg>
